<?xml version="1.0" encoding="UTF-8" standalone="no"?>
<svg
   id="svg8"
   version="1.1"
   viewBox="0 0 90.22085 79.96359"
   height="79.963593mm"
   width="90.220848mm"
   sodipodi:docname="error_425.svg"
   inkscape:version="1.1 (c68e22c387, 2021-05-23)"
   xmlns:inkscape="http://www.inkscape.org/namespaces/inkscape"
   xmlns:sodipodi="http://sodipodi.sourceforge.net/DTD/sodipodi-0.dtd"
   xmlns="http://www.w3.org/2000/svg"
   xmlns:svg="http://www.w3.org/2000/svg"
   xmlns:rdf="http://www.w3.org/1999/02/22-rdf-syntax-ns#"
   xmlns:cc="http://creativecommons.org/ns#"
   xmlns:dc="http://purl.org/dc/elements/1.1/">
  <metadata
     id="metadata4492">
    <rdf:RDF>
      <cc:Work
         rdf:about="">
        <dc:format>image/svg+xml</dc:format>
        <dc:type
           rdf:resource="http://purl.org/dc/dcmitype/StillImage" />
      </cc:Work>
    </rdf:RDF>
  </metadata>
  <sodipodi:namedview
     pagecolor="#ffffff"
     bordercolor="#666666"
     borderopacity="1"
     objecttolerance="10"
     gridtolerance="10"
     guidetolerance="10"
     inkscape:pageopacity="0"
     inkscape:pageshadow="2"
     inkscape:window-width="1347"
     inkscape:window-height="1003"
     id="namedview4490"
     showgrid="false"
     inkscape:zoom="1.7024142"
     inkscape:cx="105.4385"
     inkscape:cy="183.56285"
     inkscape:window-x="259"
     inkscape:window-y="94"
     inkscape:window-maximized="0"
     inkscape:current-layer="svg8"
     fit-margin-top="0"
     fit-margin-left="0"
     fit-margin-right="0"
     fit-margin-bottom="0"
     inkscape:pagecheckerboard="0"
     inkscape:document-units="mm" />
  <defs
     id="defs4571" />
  <path
     id="rect4550"
     style="color:#000000;font-style:normal;font-variant:normal;font-weight:normal;font-stretch:normal;font-size:medium;line-height:normal;font-family:sans-serif;font-variant-ligatures:normal;font-variant-position:normal;font-variant-caps:normal;font-variant-numeric:normal;font-variant-alternates:normal;font-feature-settings:normal;text-indent:0;text-align:start;text-decoration:none;text-decoration-line:none;text-decoration-style:solid;text-decoration-color:#000000;letter-spacing:normal;word-spacing:normal;text-transform:none;writing-mode:lr-tb;direction:ltr;text-orientation:mixed;dominant-baseline:auto;baseline-shift:baseline;text-anchor:start;white-space:normal;shape-padding:0;clip-rule:nonzero;display:inline;overflow:visible;visibility:visible;opacity:1;isolation:auto;mix-blend-mode:normal;color-interpolation:sRGB;color-interpolation-filters:linearRGB;solid-color:#000000;solid-opacity:1;vector-effect:none;fill:#ffffff;fill-opacity:1;fill-rule:nonzero;stroke:none;stroke-width:5.46376;stroke-linecap:round;stroke-linejoin:round;stroke-miterlimit:4;stroke-dasharray:none;stroke-dashoffset:0;stroke-opacity:1;marker:none;color-rendering:auto;image-rendering:auto;shape-rendering:auto;text-rendering:auto;enable-background:accumulate"
     d="M 15.121094 0 C 6.7930529 0 -2.3684758e-15 6.7891477 0 15.117188 L 0 19.775391 C 0 28.103389 6.7930929 34.890625 15.121094 34.890625 L 18.523438 34.890625 L 18.523438 271.20312 C 18.523586 272.71184 19.747149 273.9354 21.255859 273.93555 L 140.27734 273.93555 C 141.83912 289.78556 155.24239 302.22461 171.49414 302.22461 C 187.74584 302.22461 201.15238 289.78556 202.71484 273.93555 L 319.66992 273.93555 C 321.17863 273.9354 322.40219 272.71184 322.40234 271.20312 L 322.40234 34.890625 L 325.87109 34.890625 C 334.19914 34.890625 340.99219 28.103389 340.99219 19.775391 L 340.99219 15.117188 C 340.99219 6.7891477 334.19914 1.1842379e-15 325.87109 0 L 15.121094 0 z M 15.121094 5.4648438 L 325.87109 5.4648438 C 331.26674 5.4648438 335.5293 9.7215698 335.5293 15.117188 L 335.5293 19.775391 C 335.5293 25.170969 331.26674 29.427734 325.87109 29.427734 L 319.66992 29.427734 L 21.255859 29.427734 L 15.121094 29.427734 C 9.725473 29.427734 5.4628906 25.170969 5.4628906 19.775391 L 5.4628906 15.117188 C 5.4628906 9.7215698 9.725473 5.4648435 15.121094 5.4648438 z M 107.68555 57.566406 L 170.60352 57.566406 C 233.35818 57.566406 233.52429 57.567543 234.41406 58.396484 C 235.26596 59.190159 235.30469 59.548907 235.30469 66.345703 C 235.30469 75.4794 235.59058 75.09375 228.84375 75.09375 L 224.01172 75.09375 L 223.77148 85.589844 C 223.45279 99.515256 222.27312 106.17507 218.7832 113.72852 C 215.3551 121.1482 212.12125 124.80376 196.58203 138.83984 C 192.21041 142.78858 188.14297 146.76874 187.54297 147.68359 C 186.05331 149.95495 185.75621 152.05086 186.57617 154.51953 C 187.39594 156.98761 188.00844 157.62778 199.84375 168.39258 C 212.68099 180.06868 215.31508 183.13109 218.60742 190.19531 C 222.19869 197.9009 223.42032 204.40064 223.76758 217.6543 L 224.01562 227.13086 L 228.58594 227.13086 C 232.59243 227.13086 233.28897 227.23607 234.23047 227.97656 L 235.30469 228.82031 L 235.30469 235.83398 C 235.30469 241.52149 235.18461 243.01724 234.66992 243.75195 L 234.03711 244.6582 L 170.67578 244.6582 C 107.85902 244.6582 107.30823 244.65142 106.5 243.84375 C 105.74855 243.09229 105.68555 242.4845 105.68555 236.08008 C 105.68555 229.24677 105.70168 229.1168 106.68555 228.13281 C 107.6307 227.18765 107.94348 227.13086 112.33008 227.13086 L 116.97266 227.13086 L 117.22461 217.85938 C 117.5789 204.75836 118.84565 197.81464 122.20898 190.53516 C 125.60196 183.1915 128.65204 179.73744 144.4082 165.40039 C 149.00401 161.21852 153.17657 157.10629 153.67969 156.26172 C 155.11021 153.86037 155.26975 151.46676 154.16992 148.91016 C 153.35644 147.01916 151.86625 145.49948 141.94922 136.42773 C 128.11224 123.77015 126.4286 121.85963 122.9082 114.83594 C 118.93651 106.91187 117.60586 99.96346 117.22852 85.181641 L 116.9707 75.09375 L 112.24414 75.085938 C 109.64517 75.082547 107.31699 74.945962 107.07031 74.78125 C 105.929 74.019173 105.68555 72.494554 105.68555 66.134766 C 105.68555 59.705785 105.70622 59.545867 106.68555 58.566406 L 107.68555 57.566406 z M 122.80469 75.09375 L 122.8125 83.550781 C 122.81628 88.202635 123.00297 93.746358 123.22656 95.869141 C 124.32263 106.27729 127.90155 114.92001 133.7168 121.20117 C 134.96118 122.54525 140.70409 127.94971 146.47852 133.21289 C 152.61815 138.80894 157.49211 143.58638 158.21875 144.71875 C 161.34002 149.58282 161.23497 154.92883 157.91602 160.00781 C 157.35606 160.86471 151.69011 166.33615 145.32617 172.16797 C 132.71497 183.72469 130.36181 186.4193 127.39258 192.70117 C 124.05445 199.76351 122.80469 207.15298 122.80469 219.83789 L 122.80469 227.13086 L 170.49609 227.13086 L 218.18555 227.13086 L 218.18555 219.81055 C 218.18555 206.58138 216.89919 199.47566 213.12891 191.87305 C 211.90595 189.40701 209.90224 186.17948 208.67578 184.69922 C 207.44932 183.21894 201.2916 177.28009 194.99219 171.50195 C 184.50331 161.88104 183.42811 160.76918 182.21484 158.30469 C 181.03356 155.90515 180.88867 155.23541 180.88867 152.13086 C 180.88867 149.02117 181.0328 148.36039 182.22461 145.93945 C 183.45008 143.45016 184.48376 142.38025 194.89258 132.8457 C 207.28959 121.48997 209.10268 119.57062 212.02344 114.71094 C 216.481 107.29424 218.18555 98.809558 218.18555 84.039062 L 218.18555 75.09375 L 170.49609 75.09375 L 122.80469 75.09375 z M 204.84961 107.76953 C 205.84169 107.6554 206.48602 107.94053 206.95312 108.60742 C 208.81196 111.26128 206.81506 113.8123 191.01758 128.96875 C 177.36099 142.07121 176.46486 143.12002 175.4082 147.24609 C 175.15082 148.25117 174.75387 149.55409 174.52539 150.14062 C 173.87035 151.82217 171.6523 152.66927 169.32422 152.12695 C 167.33409 151.66334 166.45604 150.56417 165.78906 147.70508 C 164.88457 143.82788 163.93299 142.36252 159.60938 138.19141 C 157.41403 136.0735 151.43937 130.33259 146.33398 125.43555 C 140.75924 120.08829 136.94933 116.123 136.79492 115.50781 C 136.37094 113.81852 137.43145 112.61841 140.48438 111.32617 C 148.61416 107.88501 160.10265 107.02821 168.25391 109.25586 C 181.61022 112.906 182.44523 113.07983 186.79883 113.10938 C 191.65747 113.14226 194.76722 112.29494 200.66016 109.33203 C 202.51863 108.39761 203.85753 107.88366 204.84961 107.76953 z M 170.59766 159.06641 C 171.99331 159.05847 173.34766 160.36237 173.34766 161.71094 C 173.34766 164.1966 170.04439 165.26592 168.48633 163.28516 C 167.51034 162.04438 167.474 161.77333 168.11133 160.5625 C 168.73038 159.38639 169.24874 159.07392 170.59766 159.06641 z M 170.70898 170.11328 C 172.05724 170.1618 173.34766 171.1613 173.34766 172.71484 C 173.34766 175.20052 170.0444 176.27178 168.48633 174.29102 C 168.02168 173.70032 167.64258 172.99066 167.64258 172.71484 C 167.64258 172.43901 168.02165 171.73132 168.48633 171.14062 C 169.0706 170.39784 169.90003 170.08417 170.70898 170.11328 z M 168.23438 180.94922 C 173.92659 180.59749 179.74077 181.48394 185.20703 183.70508 C 191.09764 186.09865 197.99334 191.56602 201.67969 196.76367 C 205.61844 202.31722 208.26719 209.49807 208.6875 215.76367 C 208.90312 218.97786 208.85112 219.34805 208.05273 220.14648 L 207.17969 221.01758 L 170.49609 221.01758 L 133.81055 221.01758 L 132.93945 220.14648 C 132.14531 219.35233 132.08824 218.98055 132.30859 215.96875 C 132.94324 207.29416 136.59086 199.27308 142.95312 192.56445 C 149.59668 185.55924 158.74736 181.53543 168.23438 180.94922 z M 146.53711 273.93555 L 196.45508 273.93555 C 194.93632 286.39382 184.37367 295.99414 171.49414 295.99414 C 158.61456 295.99414 148.05516 286.39382 146.53711 273.93555 z "
     transform="scale(0.26458333)" />
</svg>
