<?xml version="1.0" encoding="UTF-8" standalone="no"?>
<svg
   id="svg8"
   version="1.1"
   viewBox="0 0 90.22085 79.96359"
   height="79.963593mm"
   width="90.220848mm"
   sodipodi:docname="error_418.svg"
   inkscape:version="1.1 (c68e22c387, 2021-05-23)"
   xmlns:inkscape="http://www.inkscape.org/namespaces/inkscape"
   xmlns:sodipodi="http://sodipodi.sourceforge.net/DTD/sodipodi-0.dtd"
   xmlns="http://www.w3.org/2000/svg"
   xmlns:svg="http://www.w3.org/2000/svg"
   xmlns:rdf="http://www.w3.org/1999/02/22-rdf-syntax-ns#"
   xmlns:cc="http://creativecommons.org/ns#"
   xmlns:dc="http://purl.org/dc/elements/1.1/">
  <metadata
     id="metadata4492">
    <rdf:RDF>
      <cc:Work
         rdf:about="">
        <dc:format>image/svg+xml</dc:format>
        <dc:type
           rdf:resource="http://purl.org/dc/dcmitype/StillImage" />
      </cc:Work>
    </rdf:RDF>
  </metadata>
  <sodipodi:namedview
     pagecolor="#ffffff"
     bordercolor="#666666"
     borderopacity="1"
     objecttolerance="10"
     gridtolerance="10"
     guidetolerance="10"
     inkscape:pageopacity="0"
     inkscape:pageshadow="2"
     inkscape:window-width="1347"
     inkscape:window-height="1003"
     id="namedview4490"
     showgrid="false"
     inkscape:zoom="1.2037886"
     inkscape:cx="140.80545"
     inkscape:cy="236.33718"
     inkscape:window-x="2219"
     inkscape:window-y="36"
     inkscape:window-maximized="0"
     inkscape:current-layer="svg8"
     fit-margin-top="0"
     fit-margin-left="0"
     fit-margin-right="0"
     fit-margin-bottom="0"
     inkscape:pagecheckerboard="0"
     inkscape:document-units="mm" />
  <defs
     id="defs4571" />
  <path
     id="rect4550"
     style="color:#000000;font-style:normal;font-variant:normal;font-weight:normal;font-stretch:normal;font-size:medium;line-height:normal;font-family:sans-serif;font-variant-ligatures:normal;font-variant-position:normal;font-variant-caps:normal;font-variant-numeric:normal;font-variant-alternates:normal;font-feature-settings:normal;text-indent:0;text-align:start;text-decoration:none;text-decoration-line:none;text-decoration-style:solid;text-decoration-color:#000000;letter-spacing:normal;word-spacing:normal;text-transform:none;writing-mode:lr-tb;direction:ltr;text-orientation:mixed;dominant-baseline:auto;baseline-shift:baseline;text-anchor:start;white-space:normal;shape-padding:0;clip-rule:nonzero;display:inline;overflow:visible;visibility:visible;opacity:1;isolation:auto;mix-blend-mode:normal;color-interpolation:sRGB;color-interpolation-filters:linearRGB;solid-color:#000000;solid-opacity:1;vector-effect:none;fill:#ffffff;fill-opacity:1;fill-rule:nonzero;stroke:none;stroke-width:5.46376;stroke-linecap:round;stroke-linejoin:round;stroke-miterlimit:4;stroke-dasharray:none;stroke-dashoffset:0;stroke-opacity:1;marker:none;color-rendering:auto;image-rendering:auto;shape-rendering:auto;text-rendering:auto;enable-background:accumulate"
     d="M 15.121094 0 C 6.793053 0 -2.3684758e-15 6.7891481 0 15.117188 L 0 19.775391 C 0 28.103389 6.793093 34.890625 15.121094 34.890625 L 18.523438 34.890625 L 18.523438 271.20312 C 18.523587 272.71184 19.747149 273.9354 21.255859 273.93555 L 140.27734 273.93555 C 141.83912 289.78556 155.24239 302.22461 171.49414 302.22461 C 187.74584 302.22461 201.15238 289.78556 202.71484 273.93555 L 319.66992 273.93555 C 321.17863 273.9354 322.40219 272.71184 322.40234 271.20312 L 322.40234 34.890625 L 325.87109 34.890625 C 334.19914 34.890625 340.99219 28.103389 340.99219 19.775391 L 340.99219 15.117188 C 340.99219 6.7891481 334.19914 1.1842379e-15 325.87109 0 L 15.121094 0 z M 15.121094 5.4648438 L 325.87109 5.4648438 C 331.26674 5.4648438 335.5293 9.7215702 335.5293 15.117188 L 335.5293 19.775391 C 335.5293 25.170969 331.26674 29.427734 325.87109 29.427734 L 319.66992 29.427734 L 21.255859 29.427734 L 15.121094 29.427734 C 9.7254732 29.427734 5.4628906 25.170969 5.4628906 19.775391 L 5.4628906 15.117188 C 5.4628906 9.7215702 9.7254732 5.4648435 15.121094 5.4648438 z M 194.24219 77.166016 C 197.16864 77.434938 199.48281 80.602185 198.33594 83.519531 C 197.3923 86.748983 193.63469 86.911881 190.86523 86.634766 C 191.15093 92.633129 190.72437 99.011332 187.12305 104.07031 L 206.94141 104.07031 C 208.87925 104.79383 212.07915 102.77434 212.42773 105.07812 C 213.59785 106.44642 214.36224 108.27968 214.05273 110.05664 C 211.71084 115.28084 209.3678 120.50455 207.02539 125.72852 C 209.76488 131.00783 211.94806 136.61376 213.06445 142.4707 C 213.66715 143.94317 212.97598 146.32821 214.26758 147.19336 C 217.25285 149.02786 219.68181 144.77608 218.47461 142.21875 C 216.30779 138.5313 215.26656 133.99378 216.71094 129.83984 C 218.55927 123.01766 226.814 118.74967 233.30078 121.93359 C 236.76247 123.50006 240.96724 127.473 238.75977 131.56055 C 237.0664 134.78532 232.2318 134.33416 230.69141 131.21289 C 228.20422 128.55169 224.09097 131.97054 225.21875 135.0625 C 226.92477 138.33265 228.28867 142.00744 227.66602 145.77539 C 227.11814 152.51162 220.02676 158.77622 213.22656 156.57031 C 211.28751 171.45647 202.29087 184.27148 192.10156 194.82617 C 188.73481 197.42522 187.87076 201.70012 186.06055 205.3418 C 191.70194 205.57982 196.10746 210.27628 197.62109 215.46289 C 199.37376 215.89578 201.63265 215.17122 203.4668 215.97266 C 207.56881 217.64352 206.70035 224.52621 202.23438 224.93945 C 198.77142 224.69623 194.9018 225.84648 191.78125 223.98047 C 188.97881 221.72761 190.5021 216.82181 186.84375 215.10156 C 184.25236 213.38989 181.49847 215.46811 179.15039 216.15625 C 174.10652 216.5802 168.88865 216.20816 163.7793 216.33398 C 160.5263 216.83973 157.86143 213.10498 154.51367 214.92578 C 151.23862 216.23299 151.55719 220.03971 150.29492 222.68945 C 148.30753 226.09885 143.73613 224.69913 140.4668 224.98438 C 136.98644 225.71076 133.7626 222.00431 135.10352 218.68164 C 136.18548 215.12031 140.38584 215.44049 143.33398 215.58789 C 144.8193 210.35044 149.24484 205.57254 154.93945 205.3418 C 153.80018 202.74091 152.66075 200.13995 151.52148 197.53906 C 140.44055 186.50143 130.22123 173.22906 127.86914 157.33789 C 127.83918 155.88857 125.74721 157.557 124.6582 157.04297 C 117.1065 156.66767 111.89306 148.5477 113.4082 141.40625 C 113.4371 138.22522 116.76399 135.7649 115.61523 132.54883 C 114.71514 129.58472 110.56245 129.68299 109.37695 132.36523 C 106.77468 135.55746 101.24405 133.04207 101.58984 129.04297 C 102.25853 124.41669 107.15066 121.35071 111.54688 120.92188 C 119.2488 120.07447 125.72351 127.70414 124.9082 135.13281 C 125.04373 138.3785 122.41358 140.83716 122.2793 143.95312 C 122.02151 146.63657 125.1001 148.80072 127.3457 146.92188 C 127.94008 139.48492 130.55352 132.32391 133.9668 125.72852 C 132.70915 122.92267 131.45101 120.11639 130.19336 117.31055 C 129.19332 114.1099 126.37408 111.14331 127.05664 107.73828 C 127.95264 106.63292 128.40225 103.59527 129.73633 104.02148 C 137.6156 104.15176 145.8506 104.02598 153.86719 104.07031 C 150.26939 99.011997 149.83353 92.632128 150.11719 86.634766 C 148.36148 86.505449 146.4395 87.002951 144.82812 86.097656 C 140.80648 84.203455 142.13954 77.320854 146.65625 77.251953 C 162.08846 77.217559 177.52524 77.246155 192.95898 77.236328 C 193.39367 77.147276 193.82412 77.127598 194.24219 77.166016 z M 176.55273 86.410156 C 174.40956 86.301184 174.99501 88.921744 175.00195 90.962891 C 175.78009 94.514033 171.92814 98.161767 168.53516 96.318359 C 164.89837 94.497341 166.19763 89.867811 165.98242 86.634766 L 159.89453 86.634766 C 158.17827 87.154216 159.56322 90.876701 159.1875 92.65625 C 159.30525 99.656736 166.53476 105.88557 173.47852 103.63281 C 179.55954 101.93978 182.55828 95.196567 181.8457 89.279297 C 182.94609 85.897905 179.9661 86.598104 177.64844 86.634766 C 177.22124 86.498168 176.8589 86.425724 176.55273 86.410156 z M 138.41797 113.4668 C 139.55232 115.99879 140.68596 118.53051 141.82031 121.0625 C 147.62846 121.20291 153.50475 120.79022 159.27344 121.25586 C 163.61081 122.32472 163.52768 129.33655 159.16016 130.29688 C 153.39754 130.67728 147.55385 130.33634 141.76172 130.45312 C 138.09864 137.44986 135.33585 145.2747 136.05469 153.28516 C 137.28065 168.02305 147.20323 180.02636 157.18164 190.14258 L 183.43164 190.14258 C 185.82096 188.58678 187.72999 185.85725 189.81055 183.73828 C 195.90101 176.76313 201.39318 168.97404 203.81836 159.76367 C 206.75801 149.85494 204.05445 139.3018 199.23047 130.46094 C 193.39681 130.31849 187.49736 130.73822 181.70117 130.26172 C 177.37253 129.17251 177.46363 122.18258 181.83008 121.21875 C 187.57377 120.84522 193.39693 121.17434 199.16992 121.0625 L 202.56641 113.4668 L 138.41797 113.4668 z M 170.25586 121.08594 C 172.27204 120.93427 174.20422 122.38296 174.76367 124.30273 C 176.29201 128.10281 171.50106 132.24352 168.07812 129.73633 C 164.42763 127.57136 165.93263 121.16546 170.25586 121.08594 z M 171.64258 138.21289 C 172.11114 138.16129 172.51428 138.17095 172.49219 138.49805 C 176.76495 139.18103 180.36737 142.42594 181.92578 146.4043 C 183.77345 151.72297 182.51644 157.48491 182.88672 162.99414 C 182.54545 165.29767 185.91539 163.50407 187.33984 164.32031 C 191.67722 165.38917 191.59409 172.40296 187.22656 173.36328 C 176.85994 173.73152 166.41715 173.4114 156.02148 173.51953 C 152.53968 174.25193 149.31422 170.5374 150.65625 167.21484 C 151.61533 164.00713 155.33816 163.85527 158.09766 164.12891 L 158.09766 152.61719 C 157.4253 145.55327 163.06898 138.25812 170.4043 138.29883 C 170.6412 138.37742 171.17401 138.26449 171.64258 138.21289 z M 170.90625 147.74805 C 169.33785 147.52159 167.77817 148.44078 167.34766 150 C 166.80333 154.53582 167.27833 159.17149 167.11914 163.74414 C 168.61123 164.62705 171.74268 163.86866 173.86523 164.12109 L 173.86523 155.68555 C 173.77311 152.96539 174.73381 148.24166 170.90625 147.74805 z M 162.29883 199.5332 C 163.37905 202.00368 164.45885 204.47289 165.53906 206.94336 L 175.44531 206.94336 C 176.52553 204.47289 177.60533 202.00368 178.68555 199.5332 L 162.29883 199.5332 z M 146.53711 273.93555 L 196.45508 273.93555 C 194.93632 286.39382 184.37367 295.99414 171.49414 295.99414 C 158.61456 295.99414 148.05516 286.39382 146.53711 273.93555 z "
     transform="scale(0.26458333)" />
</svg>
